<svg xmlns="http://www.w3.org/2000/svg" xmlns:xlink="http://www.w3.org/1999/xlink" contentStyleType="text/css" data-diagram-type="DESCRIPTION" height="806px" preserveAspectRatio="none" style="width:1044px;height:806px;background:#F9F9F9;" version="1.1" viewBox="0 0 1044 806" width="1044px" zoomAndPan="magnify"><title>Microservice Architecture of the Delivery Service</title><defs/><g><rect fill="#F9F9F9" height="806" style="stroke:none;stroke-width:1;" width="1044" x="0" y="0"/><g class="title" data-source-line="3"><text fill="#000000" font-family="sans-serif" font-size="14" font-weight="bold" lengthAdjust="spacing" textLength="326.04" x="352.1995" y="25.1074">Microservice Architecture of the Delivery Service</text><text fill="#000000" font-family="sans-serif" font-size="14" font-weight="bold" lengthAdjust="spacing" textLength="137.6758" x="446.3816" y="43.7285">Component Diagram</text></g><!--entity webclient--><g class="entity" data-entity="webclient" data-source-line="6" data-uid="ent0002" id="entity_webclient"><rect fill="#F1F1F1" height="48.6211" rx="3.5" ry="3.5" style="stroke:#181818;stroke-width:0.5;" width="108.4688" x="201" y="65.2422"/><rect fill="#F1F1F1" height="10" style="stroke:#181818;stroke-width:0.5;" width="15" x="289.4688" y="70.2422"/><rect fill="#F1F1F1" height="2" style="stroke:#181818;stroke-width:0.5;" width="4" x="287.4688" y="72.2422"/><rect fill="#F1F1F1" height="2" style="stroke:#181818;stroke-width:0.5;" width="4" x="287.4688" y="76.2422"/><text fill="#000000" font-family="sans-serif" font-size="14" lengthAdjust="spacing" textLength="68.4688" x="216" y="100.3496">Web Client</text></g><!--entity gateway--><g class="entity" data-entity="gateway" data-source-line="7" data-uid="ent0003" id="entity_gateway"><rect fill="#F1F1F1" height="48.6211" rx="3.5" ry="3.5" style="stroke:#181818;stroke-width:0.5;" width="169.9443" x="170" y="210.2422"/><rect fill="#F1F1F1" height="10" style="stroke:#181818;stroke-width:0.5;" width="15" x="319.9443" y="215.2422"/><rect fill="#F1F1F1" height="2" style="stroke:#181818;stroke-width:0.5;" width="4" x="317.9443" y="217.2422"/><rect fill="#F1F1F1" height="2" style="stroke:#181818;stroke-width:0.5;" width="4" x="317.9443" y="221.2422"/><text fill="#000000" font-family="sans-serif" font-size="14" lengthAdjust="spacing" textLength="129.9443" x="185" y="245.3496">Api Gateway Service</text></g><!--entity orders--><g class="entity" data-entity="orders" data-source-line="8" data-uid="ent0004" id="entity_orders"><rect fill="#F1F1F1" height="48.6211" rx="3.5" ry="3.5" style="stroke:#181818;stroke-width:0.5;" width="126.3584" x="588" y="355.2422"/><rect fill="#F1F1F1" height="10" style="stroke:#181818;stroke-width:0.5;" width="15" x="694.3584" y="360.2422"/><rect fill="#F1F1F1" height="2" style="stroke:#181818;stroke-width:0.5;" width="4" x="692.3584" y="362.2422"/><rect fill="#F1F1F1" height="2" style="stroke:#181818;stroke-width:0.5;" width="4" x="692.3584" y="366.2422"/><text fill="#000000" font-family="sans-serif" font-size="14" lengthAdjust="spacing" textLength="86.3584" x="603" y="390.3496">Order Service</text></g><!--entity payments--><g class="entity" data-entity="payments" data-source-line="9" data-uid="ent0005" id="entity_payments"><rect fill="#F1F1F1" height="48.6211" rx="3.5" ry="3.5" style="stroke:#181818;stroke-width:0.5;" width="145.8203" x="761" y="508.7422"/><rect fill="#F1F1F1" height="10" style="stroke:#181818;stroke-width:0.5;" width="15" x="886.8203" y="513.7422"/><rect fill="#F1F1F1" height="2" style="stroke:#181818;stroke-width:0.5;" width="4" x="884.8203" y="515.7422"/><rect fill="#F1F1F1" height="2" style="stroke:#181818;stroke-width:0.5;" width="4" x="884.8203" y="519.7422"/><text fill="#000000" font-family="sans-serif" font-size="14" lengthAdjust="spacing" textLength="105.8203" x="776" y="543.8496">Payment Service</text></g><!--entity restaurants--><g class="entity" data-entity="restaurants" data-source-line="10" data-uid="ent0006" id="entity_restaurants"><rect fill="#F1F1F1" height="48.6211" rx="3.5" ry="3.5" style="stroke:#181818;stroke-width:0.5;" width="159.0547" x="93.5" y="508.7422"/><rect fill="#F1F1F1" height="10" style="stroke:#181818;stroke-width:0.5;" width="15" x="232.5547" y="513.7422"/><rect fill="#F1F1F1" height="2" style="stroke:#181818;stroke-width:0.5;" width="4" x="230.5547" y="515.7422"/><rect fill="#F1F1F1" height="2" style="stroke:#181818;stroke-width:0.5;" width="4" x="230.5547" y="519.7422"/><text fill="#000000" font-family="sans-serif" font-size="14" lengthAdjust="spacing" textLength="119.0547" x="108.5" y="543.8496">Restaurant Service</text></g><!--entity eureka--><g class="entity" data-entity="eureka" data-source-line="11" data-uid="ent0007" id="entity_eureka"><rect fill="#F1F1F1" height="48.6211" rx="3.5" ry="3.5" style="stroke:#181818;stroke-width:0.5;" width="152.0273" x="400" y="653.7422"/><rect fill="#F1F1F1" height="10" style="stroke:#181818;stroke-width:0.5;" width="15" x="532.0273" y="658.7422"/><rect fill="#F1F1F1" height="2" style="stroke:#181818;stroke-width:0.5;" width="4" x="530.0273" y="660.7422"/><rect fill="#F1F1F1" height="2" style="stroke:#181818;stroke-width:0.5;" width="4" x="530.0273" y="664.7422"/><text fill="#000000" font-family="sans-serif" font-size="14" lengthAdjust="spacing" textLength="112.0273" x="415" y="688.8496">Discovery Service</text></g><!--entity orderDb--><g class="entity" data-entity="orderDb" data-source-line="14" data-uid="ent0008" id="entity_orderDb"><path d="M942.5,510.2422 C942.5,500.2422 982.062,500.2422 982.062,500.2422 C982.062,500.2422 1021.624,500.2422 1021.624,510.2422 L1021.624,556.4844 C1021.624,566.4844 982.062,566.4844 982.062,566.4844 C982.062,566.4844 942.5,566.4844 942.5,556.4844 L942.5,510.2422" fill="#A4DBD8" style="stroke:#191919;stroke-width:0.5;"/><path d="M942.5,510.2422 C942.5,520.2422 982.062,520.2422 982.062,520.2422 C982.062,520.2422 1021.624,520.2422 1021.624,510.2422" fill="none" style="stroke:#191919;stroke-width:0.5;"/><text fill="#191919" font-family="sans-serif" font-size="14" lengthAdjust="spacing" textLength="59.124" x="952.5" y="539.3496">Order DB</text><text fill="#191919" font-family="sans-serif" font-size="14" lengthAdjust="spacing" textLength="27.2207" x="952.5" y="557.9707">(H2)</text></g><!--entity paymentDb--><g class="entity" data-entity="paymentDb" data-source-line="15" data-uid="ent0009" id="entity_paymentDb"><path d="M784.5,655.2422 C784.5,645.2422 833.793,645.2422 833.793,645.2422 C833.793,645.2422 883.0859,645.2422 883.0859,655.2422 L883.0859,701.4844 C883.0859,711.4844 833.793,711.4844 833.793,711.4844 C833.793,711.4844 784.5,711.4844 784.5,701.4844 L784.5,655.2422" fill="#A4DBD8" style="stroke:#191919;stroke-width:0.5;"/><path d="M784.5,655.2422 C784.5,665.2422 833.793,665.2422 833.793,665.2422 C833.793,665.2422 883.0859,665.2422 883.0859,655.2422" fill="none" style="stroke:#191919;stroke-width:0.5;"/><text fill="#191919" font-family="sans-serif" font-size="14" lengthAdjust="spacing" textLength="78.5859" x="794.5" y="684.3496">Payment DB</text><text fill="#191919" font-family="sans-serif" font-size="14" lengthAdjust="spacing" textLength="27.2207" x="794.5" y="702.9707">(H2)</text></g><!--entity restaurantDb--><g class="entity" data-entity="restaurantDb" data-source-line="16" data-uid="ent0010" id="entity_restaurantDb"><path d="M6,655.2422 C6,645.2422 61.9102,645.2422 61.9102,645.2422 C61.9102,645.2422 117.8203,645.2422 117.8203,655.2422 L117.8203,701.4844 C117.8203,711.4844 61.9102,711.4844 61.9102,711.4844 C61.9102,711.4844 6,711.4844 6,701.4844 L6,655.2422" fill="#A4DBD8" style="stroke:#191919;stroke-width:0.5;"/><path d="M6,655.2422 C6,665.2422 61.9102,665.2422 61.9102,665.2422 C61.9102,665.2422 117.8203,665.2422 117.8203,655.2422" fill="none" style="stroke:#191919;stroke-width:0.5;"/><text fill="#191919" font-family="sans-serif" font-size="14" lengthAdjust="spacing" textLength="91.8203" x="16" y="684.3496">Restaurant DB</text><text fill="#191919" font-family="sans-serif" font-size="14" lengthAdjust="spacing" textLength="27.2207" x="16" y="702.9707">(H2)</text></g><g class="entity" data-entity="EurekaNote" data-source-line="41" data-uid="ent0024" id="entity_EurekaNote"><path d="M258,775.7422 L258,796.0332 A3.5,3.5 0 0 0 261.5,799.5332 L690.2686,799.5332 A3.5,3.5 0 0 0 693.7686,796.0332 L693.7686,782.2422 L683.7686,772.2422 L480,772.2422 L476,702.9222 L472,772.2422 L261.5,772.2422 A3.5,3.5 0 0 0 258,775.7422" fill="#E5E5E5" style="stroke:#191919;stroke-width:1.5;"/><path d="M683.7686,772.2422 L683.7686,780.4922 A1.75,1.75 0 0 0 685.5186,782.2422 L693.7686,782.2422 L683.7686,772.2422" fill="#E5E5E5" style="stroke:#191919;stroke-width:1.5;"/><text fill="#191919" font-family="sans-serif" font-size="13" lengthAdjust="spacing" textLength="414.7686" x="264" y="791.2705">All services are registered with and discover each other through Eureka.</text></g><!--link gateway to eureka--><g class="link" data-entity-1="gateway" data-entity-2="eureka" data-source-line="21" data-uid="lnk11" id="link_gateway_eureka"><path d="M269.92,259.4522 C283.91,282.8722 304.25,320.1722 315,355.2422 C330.11,404.5222 311.27,422.2222 330,470.2422 C358.93,544.3922 419.94,617.1722 453.2,653.4422" fill="none" id="gateway-eureka" style="stroke:#191919;stroke-width:1;"/><text fill="#000000" font-family="sans-serif" font-size="13" lengthAdjust="spacing" textLength="108.3672" x="331" y="457.7705">registers/discovers</text></g><!--link orders to eureka--><g class="link" data-entity-1="orders" data-entity-2="eureka" data-source-line="22" data-uid="lnk12" id="link_orders_eureka"><path d="M647.8,404.4022 C644.68,422.9622 638.92,449.0922 629,470.2422 C594.54,543.6722 532.04,617.0322 498.58,653.5122" fill="none" id="orders-eureka" style="stroke:#191919;stroke-width:1;"/><text fill="#000000" font-family="sans-serif" font-size="13" lengthAdjust="spacing" textLength="108.3672" x="614" y="538.7705">registers/discovers</text></g><!--link payments to eureka--><g class="link" data-entity-1="payments" data-entity-2="eureka" data-source-line="23" data-uid="lnk13" id="link_payments_eureka"><path d="M779.01,557.7922 C740.29,574.2222 687.14,596.4922 640,615.2422 C607.19,628.2922 570.44,642.2422 540.06,653.6022" fill="none" id="payments-eureka" style="stroke:#191919;stroke-width:1;"/><text fill="#000000" font-family="sans-serif" font-size="13" lengthAdjust="spacing" textLength="108.3672" x="684" y="611.2705">registers/discovers</text></g><!--link restaurants to eureka--><g class="link" data-entity-1="restaurants" data-entity-2="eureka" data-source-line="24" data-uid="lnk14" id="link_restaurants_eureka"><path d="M175.04,557.8622 C177.89,576.1122 184.7,600.6622 201,615.2422 C230,641.1822 329.06,658.8222 399.96,668.4622" fill="none" id="restaurants-eureka" style="stroke:#191919;stroke-width:1;"/><text fill="#000000" font-family="sans-serif" font-size="13" lengthAdjust="spacing" textLength="108.3672" x="202" y="611.2705">registers/discovers</text></g><!--link webclient to gateway--><g class="link" data-entity-1="webclient" data-entity-2="gateway" data-source-line="27" data-uid="lnk15" id="link_webclient_gateway"><path d="M255,114.3522 C255,140.8522 255,177.5822 255,204.0922" fill="none" id="webclient-to-gateway" style="stroke:#191919;stroke-width:1;"/><polygon fill="#191919" points="255,210.0922,259,201.0922,255,205.0922,251,201.0922,255,210.0922" style="stroke:#191919;stroke-width:1;"/><text fill="#000000" font-family="sans-serif" font-size="13" lengthAdjust="spacing" textLength="80.1836" x="256" y="159.2705">Calls services</text><text fill="#000000" font-family="sans-serif" font-size="13" lengthAdjust="spacing" textLength="13.73" x="289.2268" y="176.5615">/**</text></g><!--link gateway to orders--><g class="link" data-entity-1="gateway" data-entity-2="orders" data-source-line="28" data-uid="lnk16" id="link_gateway_orders"><path d="M320.39,259.3522 C394.53,286.1322 508.9367,327.4444 582.1567,353.8844" fill="none" id="gateway-to-orders" style="stroke:#191919;stroke-width:1;"/><polygon fill="#191919" points="587.8,355.9222,580.6935,349.1032,583.0972,354.224,577.9764,356.6277,587.8,355.9222" style="stroke:#191919;stroke-width:1;"/><text fill="#000000" font-family="sans-serif" font-size="13" lengthAdjust="spacing" textLength="109.1162" x="502" y="304.2705">Routes requests to</text><text fill="#000000" font-family="sans-serif" font-size="13" lengthAdjust="spacing" textLength="54.1899" x="529.4631" y="321.5615">/orders/**</text></g><!--link gateway to restaurants--><g class="link" data-entity-1="gateway" data-entity-2="restaurants" data-source-line="29" data-uid="lnk17" id="link_gateway_restaurants"><path d="M241.55,259.6722 C228.89,283.2622 210.37,320.6822 200,355.2422 C183.97,408.6922 177.611,468.2199 174.961,502.6099" fill="none" id="gateway-to-restaurants" style="stroke:#191919;stroke-width:1;"/><polygon fill="#191919" points="174.5,508.5922,179.1796,499.9261,174.8841,503.607,171.2033,499.3115,174.5,508.5922" style="stroke:#191919;stroke-width:1;"/><text fill="#000000" font-family="sans-serif" font-size="13" lengthAdjust="spacing" textLength="109.1162" x="201" y="376.7705">Routes requests to</text><text fill="#000000" font-family="sans-serif" font-size="13" lengthAdjust="spacing" textLength="82.3735" x="214.3713" y="394.0615">/restaurants/**</text></g><!--link gateway to restaurants--><g class="link" data-entity-1="gateway" data-entity-2="restaurants" data-source-line="30" data-uid="lnk18" id="link_gateway_restaurants"><path d="M188.48,259.3822 C146.27,278.2522 95.05,309.2422 70,355.2422 C39.65,410.9822 97.0938,471.1974 137.4438,504.8774" fill="none" id="gateway-to-restaurants-1" style="stroke:#191919;stroke-width:1;"/><polygon fill="#191919" points="142.05,508.7222,137.7038,499.8841,138.2115,505.5182,132.5774,506.0258,142.05,508.7222" style="stroke:#191919;stroke-width:1;"/><text fill="#000000" font-family="sans-serif" font-size="13" lengthAdjust="spacing" textLength="109.1162" x="71" y="376.7705">Routes requests to</text><text fill="#000000" font-family="sans-serif" font-size="13" lengthAdjust="spacing" textLength="49.8608" x="100.6277" y="394.0615">/menu/**</text></g><!--link orders to restaurants--><g class="link" data-entity-1="orders" data-entity-2="restaurants" data-source-line="33" data-uid="lnk19" id="link_orders_restaurants"><path d="M587.7,393.4722 C555.12,401.8422 515.71,414.9022 484,434.2422 C464.68,446.0222 467.82,459.3222 448,470.2422 C387.45,503.6022 315.9542,518.2819 258.6842,525.4019" fill="none" id="orders-to-restaurants" style="stroke:#191919;stroke-width:1;"/><polygon fill="#191919" points="252.73,526.1422,262.1547,529.0013,257.6918,525.5253,261.1677,521.0624,252.73,526.1422" style="stroke:#191919;stroke-width:1;"/><text fill="#000000" font-family="sans-serif" font-size="13" lengthAdjust="spacing" textLength="139.4453" x="485" y="449.2705">Calls RestaurantService</text><text fill="#000000" font-family="sans-serif" font-size="13" lengthAdjust="spacing" textLength="135.1162" x="487.1646" y="466.5615">to get menu item prices</text></g><!--link orders to payments--><g class="link" data-entity-1="orders" data-entity-2="payments" data-source-line="34" data-uid="lnk20" id="link_orders_payments"><path d="M679.59,404.4122 C713.97,432.8722 766.6978,476.5266 800.9878,504.9066" fill="none" id="orders-to-payments" style="stroke:#191919;stroke-width:1;"/><polygon fill="#191919" points="805.61,508.7322,801.227,499.9123,801.7581,505.5442,796.1263,506.0753,805.61,508.7322" style="stroke:#191919;stroke-width:1;"/><text fill="#000000" font-family="sans-serif" font-size="13" lengthAdjust="spacing" textLength="109.0845" x="767.6931" y="449.2705">Calls OrderService</text><text fill="#000000" font-family="sans-serif" font-size="13" lengthAdjust="spacing" textLength="126.4707" x="759" y="466.5615">to update order status</text></g><!--link orders to orderDb--><g class="link" data-entity-1="orders" data-entity-2="orderDb" data-source-line="37" data-uid="lnk21" id="link_orders_orderDb"><path d="M714.25,384.0222 C765.69,389.1022 838.58,401.9322 894,434.2422 C921.66,450.3722 941.8645,473.3 957.6845,495.18" fill="none" id="orders-to-orderDb" style="stroke:#191919;stroke-width:1;"/><polygon fill="#191919" points="961.2,500.0422,959.1682,490.4052,958.2704,495.9904,952.6852,495.0926,961.2,500.0422" style="stroke:#191919;stroke-width:1;"/><text fill="#000000" font-family="sans-serif" font-size="13" lengthAdjust="spacing" textLength="100.439" x="936" y="457.7705">Reads and writes</text></g><!--link payments to paymentDb--><g class="link" data-entity-1="payments" data-entity-2="paymentDb" data-source-line="38" data-uid="lnk22" id="link_payments_paymentDb"><path d="M834,557.8522 C834,581.6522 834,612.5522 834,639.0322" fill="none" id="payments-to-paymentDb" style="stroke:#191919;stroke-width:1;"/><polygon fill="#191919" points="834,645.0322,838,636.0322,834,640.0322,830,636.0322,834,645.0322" style="stroke:#191919;stroke-width:1;"/><text fill="#000000" font-family="sans-serif" font-size="13" lengthAdjust="spacing" textLength="100.439" x="835" y="611.2705">Reads and writes</text></g><!--link restaurants to restaurantDb--><g class="link" data-entity-1="restaurants" data-entity-2="restaurantDb" data-source-line="39" data-uid="lnk23" id="link_restaurants_restaurantDb"><path d="M102.35,557.7622 C85.2,566.9822 68.96,579.4922 59,596.2422 C50.37,610.7622 49.5292,623.5396 52.0892,639.3196" fill="none" id="restaurants-to-restaurantDb" style="stroke:#191919;stroke-width:1;"/><polygon fill="#191919" points="53.05,645.2422,55.5571,635.7178,52.2493,640.3067,47.6604,636.9989,53.05,645.2422" style="stroke:#191919;stroke-width:1;"/><text fill="#000000" font-family="sans-serif" font-size="13" lengthAdjust="spacing" textLength="100.439" x="60" y="611.2705">Reads and writes</text></g><!--SRC=[dPJ1ZjCm48RlUOeX5zgLsfKuSgXK6hHm05RBWGFbu3gpYRM97Mndgtrx9dRYJEWYLTmSv_Fudvb__CRNs2Aqmheiyyet25-KjCQXVLOIOMzbhJnAtri4ymY4Gu6DUaRx0jyZTDG7qtP6e_PGA55PqMRPMy8UbKQGqpy7gp6gMsTf5tx-m1CS6aNhNo0SdF4amnTdzfs2E-7nBDAj0QxY7aU_sHBj0ZB3ZkFClNXfXmMdkhYtu1xGUT5RyHTgq_Q2BfIJXXScm4YLUnAi8ANmuYGSkcnQGHv55n-EUlNftJfFgeiJWoRL2soKlG2Px0KxwoPy5cIn4LuPxMhLEH2wX18xr2LggKWbWVkcWPRPOWXLAUT9yrdv6Zx67CTkm6O3gvZs6judrDsMOu5S5bjo1JXrvGgKTUKAUiZg_dCobJMz3sdzxYcC0s_0aDSjJ1bdoPSKV3SPZuBd1z4qBd57VNjpaxDIx4R_3UZ3nIs4nzyNftWw_phAcFywJwNjmq6gnkZPZJURQVZ9ssslbGpkc7js4JjMO7PTUXUeYXLw6Au1UaLQwEnGevp7IXrEWS8my1XzHzx6M4UWItplk6G7IbDtXVJHZTGtPGUD7RrRz5AnYMFtZlCLQeEYZCO_Mv99mPdjTlE8lSukVRTRJDdh9p9jA9rycAeqKC9YyYcMCP4mYgDZ0OMiHq_wcknQJMEt3RCTrryfS1QD3zijt_m3]--></g></svg>